<svg width="18" height="18" viewBox="0 0 18 18" fill="none" xmlns="http://www.w3.org/2000/svg">
<path d="M15.7502 15.7499L12.4929 12.4927M12.4929 12.4927C13.0501 11.9355 13.492 11.274 13.7936 10.5461C14.0951 9.8181 14.2503 9.03786 14.2503 8.24991C14.2503 7.46196 14.0951 6.68172 13.7936 5.95375C13.492 5.22578 13.0501 4.56433 12.4929 4.00716C11.9357 3.44999 11.2743 3.00803 10.5463 2.70649C9.81834 2.40495 9.03811 2.24976 8.25015 2.24976C7.4622 2.24976 6.68197 2.40495 5.95399 2.70649C5.22602 3.00803 4.56457 3.44999 4.0074 4.00716C2.88216 5.13241 2.25 6.65857 2.25 8.24991C2.25 9.84125 2.88216 11.3674 4.0074 12.4927C5.13265 13.6179 6.65881 14.2501 8.25015 14.2501C9.84149 14.2501 11.3677 13.6179 12.4929 12.4927Z" stroke="#7D7461" stroke-width="2.5" stroke-linecap="round" stroke-linejoin="round"/>
</svg>
