<svg width="19" height="20" viewBox="0 0 19 20" fill="none" xmlns="http://www.w3.org/2000/svg">
<path d="M9.48516 12.7C10.9763 12.7 12.1852 11.4912 12.1852 10C12.1852 8.50888 10.9763 7.30005 9.48516 7.30005C7.99399 7.30005 6.78516 8.50888 6.78516 10C6.78516 11.4912 7.99399 12.7 9.48516 12.7Z" stroke="#7D7461" stroke-width="1.5"/>
<path d="M11.0739 1.1368C10.7436 1 10.3242 1 9.48537 1C8.64657 1 8.22717 1 7.89687 1.1368C7.67833 1.22726 7.47976 1.35991 7.31252 1.52715C7.14527 1.6944 7.01263 1.89296 6.92217 2.1115C6.83937 2.3122 6.80607 2.5471 6.79347 2.8882C6.78786 3.13479 6.71967 3.37591 6.5953 3.58891C6.47093 3.80192 6.29446 3.97981 6.08247 4.1059C5.86727 4.22654 5.62494 4.29049 5.37825 4.29175C5.13155 4.29301 4.88858 4.23153 4.67217 4.1131C4.36977 3.9529 4.15107 3.8647 3.93417 3.8359C3.46105 3.77368 2.9826 3.90188 2.60397 4.1923C2.32137 4.411 2.11077 4.7737 1.69137 5.5C1.27197 6.2263 1.06137 6.589 1.01547 6.9445C0.984538 7.17891 1.00009 7.41711 1.06125 7.64551C1.1224 7.8739 1.22795 8.08801 1.37187 8.2756C1.50507 8.4484 1.69137 8.5933 1.98027 8.7751C2.40597 9.0424 2.67957 9.4978 2.67957 10C2.67957 10.5022 2.40597 10.9576 1.98027 11.224C1.69137 11.4067 1.50417 11.5516 1.37187 11.7244C1.22795 11.912 1.1224 12.1261 1.06125 12.3545C1.00009 12.5829 0.984538 12.8211 1.01547 13.0555C1.06227 13.4101 1.27197 13.7737 1.69047 14.5C2.11077 15.2263 2.32047 15.589 2.60397 15.8077C2.79156 15.9516 3.00567 16.0572 3.23406 16.1183C3.46246 16.1795 3.70066 16.195 3.93507 16.1641C4.15107 16.1353 4.36977 16.0471 4.67217 15.8869C4.88858 15.7685 5.13155 15.707 5.37825 15.7082C5.62494 15.7095 5.86727 15.7735 6.08247 15.8941C6.51717 16.1461 6.77547 16.6096 6.79347 17.1118C6.80607 17.4538 6.83847 17.6878 6.92217 17.8885C7.01263 18.107 7.14527 18.3056 7.31252 18.4728C7.47976 18.6401 7.67833 18.7727 7.89687 18.8632C8.22717 19 8.64657 19 9.48537 19C10.3242 19 10.7436 19 11.0739 18.8632C11.2924 18.7727 11.491 18.6401 11.6582 18.4728C11.8255 18.3056 11.9581 18.107 12.0486 17.8885C12.1314 17.6878 12.1647 17.4538 12.1773 17.1118C12.1953 16.6096 12.4536 16.1452 12.8883 15.8941C13.1035 15.7735 13.3458 15.7095 13.5925 15.7082C13.8392 15.707 14.0822 15.7685 14.2986 15.8869C14.601 16.0471 14.8197 16.1353 15.0357 16.1641C15.2701 16.195 15.5083 16.1795 15.7367 16.1183C15.9651 16.0572 16.1792 15.9516 16.3668 15.8077C16.6503 15.5899 16.86 15.2263 17.2794 14.5C17.6988 13.7737 17.9094 13.411 17.9553 13.0555C17.9862 12.8211 17.9706 12.5829 17.9095 12.3545C17.8483 12.1261 17.7428 11.912 17.5989 11.7244C17.4657 11.5516 17.2794 11.4067 16.9905 11.2249C16.7796 11.0967 16.6048 10.9171 16.4825 10.7028C16.3602 10.4886 16.2943 10.2467 16.2912 10C16.2912 9.4978 16.5648 9.0424 16.9905 8.776C17.2794 8.5933 17.4666 8.4484 17.5989 8.2756C17.7428 8.08801 17.8483 7.8739 17.9095 7.64551C17.9706 7.41711 17.9862 7.17891 17.9553 6.9445C17.9085 6.5899 17.6988 6.2263 17.2803 5.5C16.86 4.7737 16.6503 4.411 16.3668 4.1923C16.1792 4.04838 15.9651 3.94283 15.7367 3.88168C15.5083 3.82053 15.2701 3.80497 15.0357 3.8359C14.8197 3.8647 14.601 3.9529 14.2977 4.1131C14.0814 4.23137 13.8386 4.29276 13.592 4.2915C13.3455 4.29024 13.1033 4.22638 12.8883 4.1059C12.6763 3.97981 12.4998 3.80192 12.3754 3.58891C12.2511 3.37591 12.1829 3.13479 12.1773 2.8882C12.1647 2.5462 12.1323 2.3122 12.0486 2.1115C11.9581 1.89296 11.8255 1.6944 11.6582 1.52715C11.491 1.35991 11.2924 1.22726 11.0739 1.1368Z" stroke="#7D7461" stroke-width="1.5"/>
</svg>
