<svg width="17" height="18" viewBox="0 0 17 18" fill="none" xmlns="http://www.w3.org/2000/svg">
<path d="M14.4773 0H6.37734C5.89995 0 5.44212 0.189642 5.10455 0.527208C4.76699 0.864773 4.57734 1.32261 4.57734 1.8V2.7C4.57734 2.93869 4.67216 3.16761 4.84095 3.3364C5.00973 3.50518 5.23865 3.6 5.47734 3.6C5.71604 3.6 5.94496 3.50518 6.11374 3.3364C6.28252 3.16761 6.37734 2.93869 6.37734 2.7V1.8H14.4773V16.2H6.37734V15.3C6.37734 15.0613 6.28252 14.8324 6.11374 14.6636C5.94496 14.4948 5.71604 14.4 5.47734 14.4C5.23865 14.4 5.00973 14.4948 4.84095 14.6636C4.67216 14.8324 4.57734 15.0613 4.57734 15.3V16.2C4.57734 16.6774 4.76699 17.1352 5.10455 17.4728C5.44212 17.8104 5.89995 18 6.37734 18H14.4773C14.9547 18 15.4126 17.8104 15.7501 17.4728C16.0877 17.1352 16.2773 16.6774 16.2773 16.2V1.8C16.2773 1.32261 16.0877 0.864773 15.7501 0.527208C15.4126 0.189642 14.9547 0 14.4773 0Z" fill="#7D7461"/>
<path d="M4.76184 12.8659C4.41084 13.2169 3.84384 13.2169 3.49284 12.8659L0.263643 9.63671C0.0949192 9.46793 0.000134365 9.23905 0.000134365 9.00041C0.000134365 8.76176 0.0949192 8.53288 0.263643 8.36411L3.49284 5.13491C3.66392 4.98028 3.88788 4.8973 4.1184 4.90312C4.34893 4.90894 4.56842 5.00311 4.73148 5.16617C4.89454 5.32923 4.98871 5.54871 4.99453 5.77924C5.00035 6.00977 4.91737 6.23373 4.76274 6.40481L3.07434 8.10041H10.8773C11.116 8.10041 11.345 8.19523 11.5137 8.36401C11.6825 8.53279 11.7773 8.76171 11.7773 9.00041C11.7773 9.2391 11.6825 9.46802 11.5137 9.6368C11.345 9.80558 11.116 9.90041 10.8773 9.90041H3.07434L4.76274 11.596C4.93074 11.7647 5.02499 11.9931 5.02482 12.2311C5.02466 12.4692 4.93008 12.6975 4.76184 12.8659Z" fill="#7D7461"/>
</svg>
