<svg width="18" height="14" viewBox="0 0 18 14" fill="none" xmlns="http://www.w3.org/2000/svg">
<path d="M10.9738 7.49004C11.345 7.61379 11.345 8.13804 10.9738 8.2618L8.79465 8.98742C8.31562 9.14714 7.88038 9.41624 7.52342 9.7734C7.16646 10.1306 6.8976 10.5659 6.73814 11.0451L6.01251 13.2231C5.88876 13.5943 5.36451 13.5943 5.24076 13.2231L4.51513 11.0439C4.35541 10.5649 4.08631 10.1297 3.72915 9.7727C3.372 9.41574 2.93661 9.14688 2.45749 8.98742L0.279486 8.2618C0.198192 8.23512 0.127401 8.18344 0.0772122 8.11415C0.0270235 8.04485 7.15566e-07 7.96148 7.15566e-07 7.87592C7.15566e-07 7.79036 0.0270235 7.70698 0.0772122 7.63769C0.127401 7.56839 0.198192 7.51672 0.279486 7.49004L2.45862 6.76441C2.93753 6.60481 3.37269 6.33588 3.72964 5.97893C4.08659 5.62198 4.35552 5.18681 4.51513 4.70791L5.24076 2.52877C5.26744 2.44748 5.31911 2.37669 5.3884 2.3265C5.4577 2.27631 5.54107 2.24929 5.62663 2.24929C5.71219 2.24929 5.79557 2.27631 5.86486 2.3265C5.93416 2.37669 5.98583 2.44748 6.01251 2.52877L6.73814 4.70791C6.89774 5.18681 7.16667 5.62198 7.52362 5.97893C7.88057 6.33588 8.31574 6.60481 8.79465 6.76441L10.9738 7.49004ZM16.7102 3.14415C16.7589 3.16028 16.8013 3.19136 16.8313 3.23296C16.8614 3.27456 16.8776 3.32458 16.8776 3.3759C16.8776 3.42722 16.8614 3.47724 16.8313 3.51884C16.8013 3.56044 16.7589 3.59152 16.7102 3.60765L15.4029 4.04303C14.8202 4.23765 14.3634 4.69441 14.1688 5.27716L13.7334 6.58441C13.7173 6.63313 13.6862 6.67553 13.6446 6.70558C13.603 6.73563 13.553 6.7518 13.5017 6.7518C13.4503 6.7518 13.4003 6.73563 13.3587 6.70558C13.3171 6.67553 13.286 6.63313 13.2699 6.58441L12.8345 5.27716C12.7388 4.98975 12.5774 4.72859 12.3632 4.51438C12.149 4.30016 11.8878 4.13878 11.6004 4.04303L10.2932 3.60765C10.2444 3.59152 10.202 3.56044 10.172 3.51884C10.1419 3.47724 10.1258 3.42722 10.1258 3.3759C10.1258 3.32458 10.1419 3.27456 10.172 3.23296C10.202 3.19136 10.2444 3.16028 10.2932 3.14415L11.6004 2.70877C11.8878 2.61302 12.149 2.45164 12.3632 2.23742C12.5774 2.02321 12.7388 1.76205 12.8345 1.47464L13.2699 0.167386C13.286 0.118667 13.3171 0.0762713 13.3587 0.0462224C13.4003 0.0161735 13.4503 0 13.5017 0C13.553 0 13.603 0.0161735 13.6446 0.0462224C13.6862 0.0762713 13.7173 0.118667 13.7334 0.167386L14.1688 1.47464C14.2646 1.76205 14.4259 2.02321 14.6401 2.23742C14.8544 2.45164 15.1155 2.61302 15.4029 2.70877L16.7102 3.14415ZM17.8903 11.0968C17.9223 11.1079 17.9501 11.1287 17.9698 11.1563C17.9894 11.184 18 11.217 18 11.2509C18 11.2848 17.9894 11.3179 17.9698 11.3455C17.9501 11.3731 17.9223 11.394 17.8903 11.4051L17.0196 11.6953C16.6303 11.8247 16.3254 12.1296 16.1961 12.5188L15.9058 13.3896C15.8947 13.4216 15.8739 13.4494 15.8463 13.469C15.8186 13.4887 15.7856 13.4993 15.7517 13.4993C15.7178 13.4993 15.6847 13.4887 15.6571 13.469C15.6295 13.4494 15.6087 13.4216 15.5975 13.3896L15.3073 12.5188C15.2435 12.327 15.1358 12.1527 14.9929 12.0097C14.8499 11.8668 14.6756 11.7591 14.4838 11.6953L13.613 11.4051C13.581 11.394 13.5532 11.3731 13.5336 11.3455C13.5139 11.3179 13.5034 11.2848 13.5034 11.2509C13.5034 11.217 13.5139 11.184 13.5336 11.1563C13.5532 11.1287 13.581 11.1079 13.613 11.0968L14.4838 10.8066C14.6756 10.7427 14.8499 10.6351 14.9929 10.4921C15.1358 10.3492 15.2435 10.1749 15.3073 9.98305L15.5975 9.11342C15.6087 9.08139 15.6295 9.05361 15.6571 9.03395C15.6847 9.0143 15.7178 9.00373 15.7517 9.00373C15.7856 9.00373 15.8186 9.0143 15.8463 9.03395C15.8739 9.05361 15.8947 9.08139 15.9058 9.11342L16.1961 9.98418C16.3254 10.3734 16.6303 10.6783 17.0196 10.8077L17.8892 11.0968H17.8903Z" fill="white"/>
</svg>
